<?xml version="1.0" encoding="UTF-8"?>
<svg id="Layer_1" data-name="Layer 1" xmlns="http://www.w3.org/2000/svg" viewBox="0 0 600 600">
  <defs>
    <style>
      .cls-1 {
        fill: #ff8340;
      }
    </style>
  </defs>
  <path class="cls-1" d="M252.49,273.99c-.04-1.23-1.07-2.18-2.3-2.13l-11.71.55c-1.2.06-2.13,1.06-2.11,2.26.13,5.5.3,10.99.53,16.46.25,6.19.38,12.43.38,18.71,0,2.16-.08,4.24-.24,6.24-.16,2-.6,3.8-1.33,5.38-.73,1.59-1.84,2.86-3.33,3.81-1.5.95-3.61,1.43-6.33,1.43s-4.73-.62-6.19-1.86c-1.46-1.23-2.56-2.77-3.29-4.62-.73-1.84-1.17-3.85-1.33-6.04-.16-2.19-.24-4.27-.24-6.24,0-5.52.33-10.96,1-16.33.58-4.63,1.02-9.33,1.34-14.07.08-1.23-.88-2.3-2.11-2.35l-11.71-.49c-1.18-.05-2.19.85-2.28,2.03-.36,4.87-.84,9.72-1.42,14.54-.67,5.52-1,11.08-1,16.66,0,4.45.45,8.76,1.34,12.95.89,4.19,2.38,7.92,4.48,11.19,2.09,3.27,4.87,5.89,8.33,7.86,3.46,1.97,7.79,2.95,13,2.95,5.58,0,10.15-.94,13.71-2.81,3.55-1.87,6.36-4.41,8.43-7.62,2.06-3.2,3.47-6.95,4.23-11.24.76-4.28,1.14-8.83,1.14-13.66,0-6.03-.13-12.01-.38-17.95-.22-5.2-.42-10.4-.59-15.62Z"/>
  <path class="cls-1" d="M316.4,330.62c-1.97-.23-4.07-.59-6.29-1.07-3.08-.67-5.95-1.74-8.62-3.24-2.67-1.49-4.9-3.52-6.71-6.09-1.81-2.57-2.71-5.89-2.71-9.95,0-2.98.44-5.54,1.33-7.66.89-2.13,2.11-3.87,3.67-5.24,1.55-1.36,3.38-2.36,5.47-3,2.1-.64,4.32-.95,6.67-.95,3.62,0,7.26.39,10.88,1.2,1.28-.9,1.87-1.32,3.15-2.22l1.49-11.39c.16-1.2-.69-2.3-1.88-2.47-1.92-.27-3.82-.53-5.69-.79-2.57-.34-5.19-.52-7.86-.52-4.63,0-8.98.73-13.04,2.19-4.06,1.46-7.6,3.59-10.61,6.38-3.01,2.79-5.4,6.25-7.14,10.38-1.75,4.13-2.62,8.83-2.62,14.09,0,6.15,1.35,11.49,4.05,15.99,2.7,4.51,6.07,8.27,10.14,11.28,4.06,3.01,8.44,5.27,13.14,6.76,3.91,1.24,7.59,1.99,11.06,2.24,1.16.09,2.2-.73,2.37-1.88l1.67-11.55c.18-1.22-.68-2.35-1.91-2.49Z"/>
  <path class="cls-1" d="M377.52,279.09c-1.62-1.67-3.51-3.01-5.66-4-2.16-.98-4.51-1.47-7.05-1.47-3.56,0-6.97.68-10.24,2.05-3.27,1.36-6.27,3.09-9,5.19-.05-1.18-1.02-2.1-2.2-2.1h-11.85c-1.23,0-2.22,1.01-2.2,2.24.15,8.63.23,17.24.24,25.82,0,1.49-1.45,2.58-2.86,2.12-1.69-.56-3.32-1.28-4.9-2.18-1.87-1.07-3.58-2.37-5.13-3.92-.82-.82-2.12-.86-2.99-.1l-8.89,7.78c-.96.84-.99,2.3-.1,3.22,3.05,3.15,6.48,5.78,10.31,7.88,4.51,2.48,9.24,4,14.19,4.57.89.06,1.89.15,3,.29,1.11.12,2.19.23,3.23.33,1.05.09,1.97.2,2.76.33.79.12,1.32.29,1.57.47.31.19.38.48.19.86-.19.38-.69.74-1.48,1.09-.79.35-1.97.65-3.53.91-1.11.18-2.46.3-4.05.35-1.13.04-2.06.91-2.14,2.04-.14,1.86-.28,3.71-.42,5.56-.13,1.78-.28,3.57-.45,5.36-.11,1.22.78,2.3,1.99,2.4l11.79,1.04c1.21.11,2.28-.79,2.38-2,.2-2.24.4-4.46.62-6.66.16-1.59.3-3.19.43-4.81.14-1.74,2.12-2.64,3.52-1.59,2.75,2.06,5.51,4.09,8.29,6.07,3.28,2.34,6.67,4.54,10.18,6.58,1.05.61,2.41.24,3.01-.81l5.9-10.21c.6-1.04.25-2.37-.79-2.99-2.19-1.31-4.33-2.67-6.41-4.09-1.7-1.15-3.41-2.34-5.11-3.56-1.32-.95-1.2-2.92.21-3.72,1.71-.98,3.39-2.07,5.04-3.28,2.63-1.94,4.97-4.15,7-6.62,2.03-2.47,3.67-5.17,4.9-8.09,1.24-2.92,1.86-6.03,1.86-9.33,0-2.48-.46-4.84-1.38-7.1-.92-2.25-2.19-4.22-3.81-5.9ZM365.57,295.94c-.63,1.18-1.33,2.27-2.1,3.29-2.16,2.67-4.82,4.81-8,6.43-2.28,1.16-4.58,2.1-6.92,2.82-1.4.43-2.82-.6-2.86-2.06l-.02-.66c-.01-.41.09-.81.29-1.16.84-1.42,1.86-2.93,3.07-4.51,1.36-1.77,2.89-3.42,4.57-4.95,1.68-1.53,3.47-2.79,5.38-3.81,1.9-1.01,3.84-1.52,5.81-1.52.64,0,1.08.29,1.33.85.25.57.38,1.12.38,1.62,0,1.27-.32,2.49-.95,3.67Z"/>
  <path class="cls-1" d="M472.43,265.67c-2.08.22-4.12.43-6.13.61-2.73.26-5.49.48-8.28.67-4.76.39-9.48.57-14.14.57-3.94,0-7.91.07-11.92.21-1.22.04-2.18,1.08-2.13,2.3l.49,11.79c.05,1.2,1.06,2.14,2.27,2.1,3.01-.09,5.99-.17,8.96-.22,2.08-.04,4.17-.08,6.27-.14,1.89-.05,2.97,2.12,1.77,3.59-1.34,1.64-2.72,3.34-4.14,5.12-2.54,3.18-4.87,6.49-7,9.95-2.13,3.46-3.89,7.01-5.28,10.66-1.39,3.66-2.09,7.35-2.09,11.1,0,3.05.68,5.66,2.05,7.86,1.36,2.19,3.11,4,5.24,5.42,2.12,1.43,4.52,2.49,7.19,3.19s5.33,1.05,8,1.05c3.68,0,7.32-.4,10.9-1.19,2.88-.63,5.73-1.4,8.55-2.31,1.15-.37,1.77-1.62,1.41-2.77l-3.61-11.25c-.37-1.16-1.6-1.78-2.76-1.42-1.99.62-4.01,1.19-6.05,1.71-2.76.7-5.57,1.05-8.43,1.05-.25,0-.73-.03-1.43-.09-.7-.06-1.4-.16-2.1-.29-.7-.12-1.33-.29-1.9-.48-.57-.19-.86-.38-.86-.57,0-1.91.51-4.06,1.53-6.48,1.02-2.41,2.35-4.92,4-7.52,1.65-2.6,3.51-5.23,5.57-7.9,2.06-2.67,4.11-5.25,6.14-7.76,2.03-2.51,3.96-4.84,5.81-7,1.81-2.13,3.32-3.97,4.52-5.55.04-.05.07-.1.1-.15l.59-.91c.26-.41.39-.9.34-1.38l-.98-11.57c-.1-1.23-1.21-2.13-2.43-2Z"/>
  <path class="cls-1" d="M517.47,264.11c-1.45-.08-2.89-.21-4.32-.38-2.13-.26-4.3-.39-6.52-.39-2.79,0-5.56,0-8.28-.05-2.73-.03-5.49-.05-8.28-.05h-5.95c-1.25,0-2.51.01-3.79.04-1.2.02-2.16,1.01-2.16,2.21v11.35c0,1.8-.17,3.6-.54,5.37-.34,1.66-.61,3.31-.8,4.94-.32,2.42-.49,4.81-.52,7.19-.03,2.38-.05,4.78-.05,7.19l.1,26.66h.19l-.38,8.18c.32,0,.65.02,1,.05.35.04.68.05,1,.05,3.24,0,6.47-.12,9.71-.33,3.23-.22,6.47-.33,9.71-.33,3.43,0,6.79.03,10.1.09,2.59.05,5.21.08,7.88.09,1.22,0,2.21-.99,2.21-2.2v-11.81c0-1.2-.97-2.18-2.17-2.2-3.52-.06-7.02-.12-10.49-.2-3.44-.08-6.9-.07-10.39.05-1.24.04-2.28-.94-2.28-2.19v-12.63c0-1.15.89-2.1,2.04-2.19,3.05-.22,6.09-.48,9.1-.76,2.96-.28,5.93-.49,8.93-.63,1.22-.06,2.16-1.08,2.11-2.29l-.55-11.79c-.06-1.21-1.09-2.16-2.3-2.1-2.75.13-5.47.32-8.18.57-2.54.24-5.09.45-7.66.65-1.41.11-2.57-1.13-2.36-2.52.04-.25.08-.5.12-.75.08-.51.16-1.01.23-1.51.16-1.12,1.15-1.91,2.28-1.87,1.37.04,2.76.04,4.16,0,2.1-.06,4.16-.1,6.19-.1,2.22,0,4.39.13,6.52.39,1.37.16,2.75.28,4.16.37,1.28.08,2.36-.92,2.36-2.2v-11.78c0-1.18-.93-2.13-2.1-2.2Z"/>
  <path class="cls-1" d="M275.77,328.94c-.79-1.56-1.44-3.1-1.95-4.62-.51-1.53-.91-3.15-1.19-4.86-.28-1.71-.43-3.68-.43-5.9.32-7.48.81-14.93,1.48-22.32.61-6.79,1.1-13.61,1.47-20.48.06-1.07.87-1.94,1.94-2.06l12.51-1.44c1.22-.14,2.09-1.25,1.93-2.47l-1.52-11.72c-.15-1.19-1.24-2.04-2.44-1.9l-9.31,1.08c-1.3.15-2.43-.85-2.45-2.16-.02-1.4-.07-2.81-.14-4.23-.06-1.25-1.16-2.19-2.4-2.08l-11.76,1.04c-1.2.11-2.07,1.15-2,2.35.04.75.07,1.51.08,2.27.01.62.03,1.24.03,1.86.02,1.35-1.17,2.41-2.51,2.22-2.57-.37-5.1-.79-7.61-1.27-2.62-.5-5.23-1.02-7.83-1.56-1.18-.24-2.33.5-2.59,1.67l-2.57,11.51c-.27,1.2.49,2.39,1.7,2.64,3.08.64,6.16,1.23,9.24,1.77,3.13.55,6.31,1.02,9.53,1.42,1.17.14,2.02,1.17,1.93,2.35-.26,3.55-.53,7.09-.79,10.62-.32,4.22-.63,8.45-.95,12.71-.26,3.42-.51,6.84-.76,10.24s-.38,6.81-.38,10.24c0,4.83.79,9.3,2.38,13.43,1.34,3.47,2.9,6.92,4.69,10.36.56,1.07,1.89,1.48,2.96.92l10.47-5.41c1.09-.56,1.5-1.91.93-2.99-.6-1.15-1.16-2.22-1.67-3.22Z"/>
  <path class="cls-1" d="M190.31,272.85c-2.4-3.34-5.36-6.06-8.87-8.16-3.51-2.1-7.58-3.15-12.21-3.15-6.09,0-11.18,1.03-15.3,3.08-4.11,2.06-7.39,4.84-9.83,8.36-2.44,3.51-4.18,7.67-5.21,12.47-.37,1.71-.64,3.46-.88,5.25l-5.86-2.47c-1.91-.81-2.57-3.19-1.34-4.86l9.77-13.27c.43-.59.67-1.31.63-2.03-.43-7.69-4.71-14.77-11.36-18.75l-13.59-8.02c-6.54-3.84-14.49-4.29-21.41-1.2-6.91,3.09-11.86,9.39-13.24,16.84l-.82,4.15c-.33,1.52-.4,3.05-.39,4.57.07,9.81,6.39,18.82,16.06,21.96l36.45,11.83v.72l-36.28,12.36c-9.62,3.28-15.81,12.38-15.74,22.19.01,1.52.19,3.04.46,4.56l.88,4.14c1.49,7.43,6.61,13.57,13.48,16.65,6.96,2.99,14.9,2.43,21.39-1.51l13.47-8.22c6.59-4,10.77-11.23,11.09-18.94.03-.71-.21-1.41-.63-1.98l-9.4-12.82c-1.1-1.5-.7-3.61.87-4.61l5.22-3.32c.2,2.14.47,4.28.84,6.41.81,4.76,2.31,9.04,4.5,12.85,2.19,3.81,5.14,6.92,8.87,9.32,3.73,2.4,8.46,3.6,14.2,3.6,4.11,0,7.78-.6,10.99-1.8,3.21-1.2,5.98-2.93,8.29-5.21,2.31-2.27,4.22-4.97,5.72-8.1,1.2-2.51,2.2-5.25,2.99-8.22.32-1.22-.42-2.47-1.65-2.74l-16.9-3.77c-1.19-.26-2.34.49-2.62,1.68-.32,1.36-.8,2.6-1.42,3.74-.94,1.72-2.74,2.57-5.4,2.57-.51,0-1.07-.02-1.67-.06-.6-.04-1.11-.23-1.54-.58-.94-.69-1.67-1.91-2.19-3.66-.51-1.75-.88-3.66-1.09-5.72-.21-2.06-.34-4.07-.39-6.04-.04-1.97-.06-3.51-.06-4.63,0-1.8.08-3.58.26-5.33.17-1.75.58-3.34,1.22-4.76.64-1.41,1.63-2.57,2.96-3.47,1.33-.9,3.1-1.35,5.33-1.35,1.37,0,2.51.54,3.41,1.61.9,1.07,1.63,2.36,2.19,3.86.56,1.5.94,3.04,1.16,4.63.09.68.17,1.32.24,1.9.14,1.15,1.13,1.98,2.29,1.93l17.4-.82c1.27-.06,2.2-1.17,2.09-2.43-.3-3.34-.96-6.67-1.97-10.01-1.24-4.11-3.06-7.84-5.46-11.18ZM127.9,270.34l-6.84,8.83c-.79,1.02-2.12,1.47-3.37,1.13l-17.22-4.65-.09-.08c-5.09-1.65-8.08-6.79-7.11-12.04l.82-4.07c.65-3.39,2.83-6.19,6.03-7.66,3.2-1.46,6.67-1.23,9.73.52l13.59,8.02c2.73,1.59,4.63,4.47,5.11,7.57.13.86-.12,1.74-.65,2.43ZM123.92,339.47l-13.47,8.22c-2.95,1.8-6.5,2.08-9.72.66h.08c-3.22-1.42-5.44-4.11-6.14-7.57l-.88-4.14c-1.05-5.24,1.87-10.42,6.93-12.15l16.13-6.5c1.36-.55,2.91-.11,3.78,1.07l7.69,10.38c.49.66.72,1.49.62,2.31-.39,3.19-2.21,6.07-5.02,7.72Z"/>
  <path class="cls-1" d="M430.15,320.61c-.13-2.6-.27-5.43-.43-8.48-.16-3.05-.43-6.19-.81-9.43-.38-3.23-.89-6.47-1.52-9.71-.64-3.24-1.51-6.3-2.62-9.19-1.11-2.88-2.49-5.55-4.14-8-1.65-2.44-3.65-4.46-6-6.04-1.52-1.08-3.16-1.91-4.9-2.48-1.75-.57-3.54-.85-5.38-.85-2.86,0-5.35.46-7.47,1.38-2.13.92-3.97,2.18-5.52,3.76-1.56,1.59-2.84,3.43-3.85,5.52-1.02,2.09-1.81,4.32-2.38,6.66-.57,2.35-.98,4.75-1.24,7.19-.26,2.44-.38,4.8-.38,7.09,0,4.77.21,9.46.62,14.09.41,4.63.94,9.3,1.57,13.99.51,3.49,1.03,6.95,1.57,10.38.42,2.66.64,5.36.66,8.09,0,1.28,1.13,2.27,2.4,2.15l11.75-1.1c1.13-.11,2-1.06,2-2.19v-.76c0-1.96-.08-3.77-.24-5.42-.16-1.65-.37-3.25-.62-4.81-.26-1.55-.54-3.14-.86-4.76-.18-.9-.35-1.86-.5-2.87-.2-1.32.82-2.51,2.15-2.53,2.61-.05,5.21-.17,7.81-.36,1.23-.09,2.3.83,2.37,2.07.25,4.67.54,9.36.86,14.07.08,1.23,1.17,2.16,2.4,2.05l11.71-1.04c1.19-.11,2.08-1.14,2.01-2.34-.15-2.33-.31-4.67-.48-7-.23-3.05-.4-6.09-.52-9.14ZM413.72,296.47l-10.06,6.41c-2.64,1.68-5.91-.36-5.87-3.69l.13-12.64c.03-3.32,3.34-5.43,5.95-3.79l9.93,6.23c2.61,1.64,2.57,5.79-.08,7.48Z"/>
</svg>