<?xml version="1.0" encoding="UTF-8"?>
<svg id="Layer_1" data-name="Layer 1" xmlns="http://www.w3.org/2000/svg" viewBox="0 0 605.87 170.89">
  <defs>
    <style>
      .cls-1 {
        fill: #ff8340;
      }
    </style>
  </defs>
  <path class="cls-1" d="M239.49,50.06c-.06-1.67-1.46-2.97-3.13-2.89l-15.95.75c-1.63.08-2.9,1.44-2.87,3.07.17,7.49.41,14.96.72,22.41.34,8.43.52,16.93.52,25.49,0,2.94-.11,5.77-.32,8.5-.22,2.72-.82,5.17-1.81,7.32-1,2.16-2.51,3.89-4.54,5.19-2.04,1.3-4.91,1.94-8.63,1.94s-6.44-.84-8.43-2.53c-1.99-1.68-3.48-3.78-4.47-6.29-1-2.5-1.6-5.24-1.81-8.23-.22-2.98-.33-5.81-.33-8.5,0-7.51.45-14.93,1.36-22.23.78-6.31,1.39-12.7,1.82-19.17.11-1.68-1.19-3.13-2.88-3.2l-15.95-.67c-1.61-.07-2.98,1.16-3.1,2.77-.49,6.63-1.14,13.24-1.93,19.81-.91,7.52-1.37,15.09-1.37,22.69,0,6.06.61,11.94,1.82,17.63,1.21,5.71,3.24,10.78,6.1,15.24,2.85,4.45,6.63,8.02,11.34,10.7,4.71,2.68,10.61,4.02,17.7,4.02,7.6,0,13.83-1.28,18.67-3.83,4.84-2.54,8.66-6,11.48-10.37,2.81-4.36,4.73-9.47,5.77-15.3,1.04-5.83,1.56-12.03,1.56-18.6,0-8.21-.17-16.36-.52-24.44-.3-7.08-.57-14.17-.81-21.28Z"/>
  <path class="cls-1" d="M326.52,127.2c-2.69-.32-5.54-.8-8.56-1.46-4.19-.91-8.1-2.37-11.73-4.41-3.63-2.03-6.68-4.79-9.14-8.29-2.46-3.5-3.69-8.02-3.69-13.55,0-4.06.6-7.55,1.82-10.44,1.21-2.9,2.87-5.28,4.99-7.13,2.12-1.86,4.61-3.22,7.46-4.08,2.85-.87,5.88-1.3,9.08-1.3,4.93,0,9.88.53,14.82,1.64,1.74-1.23,2.55-1.8,4.29-3.03l2.03-15.51c.21-1.63-.94-3.13-2.57-3.36-2.62-.37-5.2-.73-7.74-1.08-3.5-.46-7.07-.71-10.7-.71-6.31,0-12.23.99-17.77,2.98-5.53,1.99-10.35,4.89-14.46,8.7-4.1,3.8-7.35,8.52-9.73,14.13-2.38,5.62-3.57,12.02-3.57,19.2,0,8.38,1.84,15.65,5.51,21.78,3.67,6.14,8.27,11.26,13.81,15.36,5.53,4.1,11.5,7.18,17.89,9.21,5.32,1.68,10.34,2.71,15.06,3.05,1.59.12,3-.99,3.23-2.57l2.28-15.73c.24-1.66-.93-3.2-2.6-3.4Z"/>
  <path class="cls-1" d="M409.77,57.01c-2.21-2.28-4.78-4.11-7.71-5.45-2.94-1.34-6.14-2-9.6-2-4.84,0-9.49.93-13.94,2.79-4.45,1.86-8.54,4.21-12.25,7.07-.07-1.6-1.39-2.86-2.99-2.86h-16.14c-1.67,0-3.02,1.37-2.99,3.05.2,11.76.31,23.48.33,35.17,0,2.02-1.98,3.51-3.9,2.88-2.3-.76-4.53-1.75-6.67-2.97-2.54-1.45-4.87-3.23-6.99-5.34-1.11-1.11-2.89-1.17-4.07-.14l-12.11,10.59c-1.31,1.15-1.35,3.14-.14,4.39,4.15,4.29,8.83,7.87,14.04,10.73,6.14,3.38,12.58,5.45,19.32,6.23,1.21.08,2.57.21,4.08.39,1.51.17,2.98.32,4.41.45,1.43.13,2.68.27,3.76.45,1.08.17,1.79.39,2.14.64.43.26.52.65.26,1.17-.26.52-.93,1.01-2.01,1.49-1.08.47-2.68.89-4.8,1.23-1.52.25-3.36.41-5.52.48-1.54.05-2.8,1.24-2.92,2.77-.19,2.54-.38,5.06-.58,7.58-.18,2.43-.39,4.86-.62,7.3-.15,1.66,1.06,3.13,2.71,3.27l16.05,1.41c1.65.15,3.1-1.08,3.25-2.73.27-3.05.55-6.07.84-9.07.21-2.17.41-4.35.58-6.55.19-2.37,2.89-3.6,4.79-2.17,3.74,2.81,7.5,5.57,11.29,8.26,4.46,3.19,9.09,6.18,13.86,8.96,1.43.83,3.28.33,4.11-1.11l8.04-13.91c.82-1.42.33-3.23-1.07-4.07-2.99-1.79-5.89-3.64-8.72-5.57-2.32-1.57-4.64-3.19-6.96-4.85-1.8-1.29-1.63-3.97.29-5.07,2.33-1.33,4.62-2.82,6.87-4.46,3.59-2.64,6.76-5.65,9.53-9.02,2.77-3.37,5-7.04,6.68-11.02,1.69-3.98,2.53-8.21,2.53-12.71,0-3.38-.63-6.6-1.88-9.67-1.26-3.06-2.98-5.74-5.19-8.04ZM393.5,79.96c-.86,1.6-1.81,3.09-2.85,4.47-2.94,3.63-6.57,6.55-10.89,8.76-3.1,1.58-6.24,2.86-9.42,3.84-1.91.59-3.85-.81-3.89-2.81l-.02-.89c-.01-.56.12-1.1.4-1.59,1.14-1.94,2.53-3.99,4.19-6.14,1.86-2.42,3.93-4.66,6.22-6.74,2.29-2.08,4.73-3.8,7.33-5.19,2.59-1.37,5.23-2.07,7.91-2.07.87,0,1.47.39,1.81,1.16.34.78.52,1.52.52,2.21,0,1.73-.43,3.4-1.29,4.99Z"/>
  <path class="cls-1" d="M539.03,38.73c-2.83.3-5.62.58-8.35.83-3.72.35-7.48.65-11.28.91-6.48.53-12.91.78-19.26.78-5.36,0-10.77.1-16.23.28-1.66.06-2.97,1.47-2.9,3.13l.67,16.06c.07,1.64,1.45,2.92,3.09,2.87,4.09-.13,8.16-.23,12.2-.3,2.83-.05,5.68-.11,8.54-.19,2.57-.07,4.05,2.89,2.42,4.88-1.83,2.23-3.71,4.56-5.64,6.97-3.46,4.33-6.64,8.84-9.53,13.55-2.9,4.72-5.3,9.55-7.2,14.52-1.9,4.98-2.85,10.01-2.85,15.11,0,4.15.92,7.71,2.79,10.7,1.86,2.98,4.24,5.45,7.13,7.39,2.89,1.95,6.16,3.4,9.79,4.35,3.63.95,7.26,1.42,10.89,1.42,5.02,0,9.97-.54,14.85-1.63,3.92-.86,7.8-1.91,11.64-3.14,1.57-.5,2.42-2.2,1.91-3.77l-4.92-15.32c-.51-1.57-2.18-2.42-3.76-1.93-2.71.84-5.46,1.62-8.24,2.32-3.76.95-7.58,1.42-11.48,1.42-.34,0-.99-.04-1.94-.13-.96-.08-1.9-.22-2.85-.39-.95-.17-1.81-.39-2.59-.65-.78-.25-1.17-.52-1.17-.77,0-2.6.69-5.53,2.08-8.82,1.38-3.28,3.2-6.7,5.45-10.25,2.25-3.54,4.78-7.12,7.59-10.76,2.81-3.63,5.59-7.14,8.36-10.56,2.76-3.42,5.4-6.6,7.91-9.53,2.47-2.9,4.52-5.41,6.15-7.55.05-.07.1-.13.14-.2l.8-1.24c.36-.56.53-1.22.47-1.88l-1.34-15.76c-.14-1.68-1.64-2.9-3.32-2.72Z"/>
  <path class="cls-1" d="M600.37,36.61c-1.97-.12-3.94-.29-5.89-.52-2.9-.35-5.86-.53-8.89-.53-3.8,0-7.57-.01-11.28-.06-3.72-.04-7.48-.06-11.28-.06h-8.1c-1.7,0-3.42.02-5.17.05-1.63.03-2.94,1.37-2.94,3v15.45c0,2.45-.23,4.91-.73,7.31-.47,2.26-.83,4.51-1.09,6.72-.43,3.29-.67,6.55-.71,9.79-.05,3.24-.07,6.51-.07,9.79l.13,36.31h.26l-.52,11.14c.43,0,.89.02,1.36.06.48.05.93.07,1.36.07,4.41,0,8.82-.16,13.23-.45,4.41-.31,8.82-.45,13.22-.45,4.67,0,9.25.04,13.75.13,3.52.07,7.1.11,10.73.12,1.66,0,3.01-1.34,3.01-3v-16.09c0-1.64-1.32-2.97-2.96-2.99-4.8-.08-9.56-.17-14.29-.27-4.68-.11-9.4-.09-14.14.07-1.7.06-3.1-1.28-3.1-2.98v-17.19c0-1.57,1.22-2.86,2.78-2.98,4.16-.3,8.29-.65,12.39-1.04,4.02-.38,8.08-.67,12.16-.85,1.66-.08,2.95-1.46,2.87-3.12l-.75-16.05c-.08-1.65-1.48-2.94-3.13-2.86-3.74.18-7.45.44-11.14.78-3.46.32-6.93.62-10.44.89-1.92.15-3.5-1.53-3.21-3.44.05-.34.1-.68.16-1.02.11-.69.21-1.37.31-2.06.21-1.52,1.57-2.6,3.11-2.55,1.87.06,3.76.06,5.66,0,2.85-.08,5.66-.14,8.43-.14,3.02,0,5.98.18,8.88.53,1.86.22,3.75.39,5.67.5,1.74.1,3.22-1.25,3.22-2.99v-16.04c0-1.6-1.26-2.9-2.87-2.99Z"/>
  <path class="cls-1" d="M271.2,124.91c-1.08-2.12-1.96-4.22-2.65-6.29-.7-2.08-1.23-4.28-1.62-6.62-.39-2.33-.58-5.01-.58-8.04.43-10.19,1.1-20.34,2.01-30.4.83-9.25,1.5-18.54,2-27.89.08-1.46,1.19-2.64,2.64-2.81l17.03-1.96c1.66-.19,2.85-1.71,2.63-3.36l-2.08-15.96c-.21-1.63-1.69-2.78-3.32-2.59l-12.69,1.48c-1.77.21-3.31-1.16-3.34-2.94-.03-1.9-.1-3.82-.19-5.76-.08-1.7-1.58-2.98-3.27-2.84l-16.02,1.42c-1.63.14-2.81,1.56-2.73,3.2.05,1.03.09,2.06.11,3.09.02.85.03,1.7.05,2.54.02,1.84-1.6,3.29-3.42,3.03-3.49-.51-6.95-1.08-10.37-1.73-3.57-.68-7.12-1.39-10.66-2.12-1.6-.33-3.17.68-3.53,2.28l-3.49,15.68c-.36,1.63.67,3.25,2.31,3.6,4.2.88,8.39,1.68,12.59,2.42,4.27.75,8.59,1.39,12.97,1.93,1.59.2,2.75,1.6,2.63,3.19-.36,4.83-.72,9.65-1.08,14.46-.44,5.75-.86,11.51-1.3,17.31-.35,4.66-.7,9.32-1.04,13.94s-.52,9.28-.52,13.94c0,6.57,1.08,12.66,3.24,18.29,1.82,4.73,3.95,9.43,6.38,14.11.76,1.46,2.57,2.01,4.03,1.26l14.25-7.37c1.48-.76,2.05-2.6,1.27-4.07-.82-1.56-1.58-3.02-2.28-4.38Z"/>
  <path class="cls-1" d="M154.81,48.51c-3.27-4.55-7.3-8.25-12.08-11.12-4.79-2.86-10.33-4.29-16.63-4.29-8.29,0-15.23,1.4-20.83,4.2-5.6,2.8-10.07,6.6-13.39,11.38-3.33,4.79-5.69,10.44-7.09,16.98-.5,2.32-.88,4.72-1.2,7.15l-7.98-3.37c-2.6-1.1-3.5-4.34-1.82-6.62l13.31-18.08c.59-.8.92-1.78.86-2.77-.59-10.47-6.42-20.11-15.47-25.54l-18.51-10.92C45.08.28,34.24-.33,24.83,3.88,15.41,8.1,8.68,16.67,6.79,26.82l-1.11,5.65c-.45,2.08-.55,4.15-.53,6.22.1,13.36,8.71,25.63,21.87,29.91l49.65,16.12v.98l-49.41,16.83c-13.1,4.47-21.54,16.86-21.44,30.22.02,2.07.26,4.15.62,6.22l1.19,5.64c2.03,10.12,9,18.48,18.36,22.68,9.47,4.08,20.3,3.31,29.13-2.05l18.35-11.19c8.98-5.45,14.67-15.3,15.1-25.8.04-.97-.29-1.92-.86-2.7l-12.8-17.46c-1.5-2.04-.95-4.92,1.18-6.27l7.11-4.52c.27,2.92.64,5.83,1.14,8.73,1.11,6.48,3.15,12.31,6.13,17.51,2.98,5.19,7,9.42,12.08,12.69,5.08,3.27,11.52,4.9,19.34,4.9,5.6,0,10.59-.82,14.97-2.45,4.38-1.63,8.14-4,11.29-7.09,3.15-3.09,5.75-6.77,7.79-11.03,1.64-3.41,2.99-7.15,4.07-11.2.44-1.66-.57-3.36-2.24-3.73l-23.02-5.13c-1.62-.36-3.18.67-3.57,2.28-.44,1.85-1.09,3.55-1.94,5.09-1.28,2.34-3.74,3.5-7.35,3.5-.7,0-1.46-.03-2.28-.09-.82-.06-1.52-.32-2.1-.79-1.29-.93-2.28-2.6-2.98-4.99-.7-2.39-1.2-4.99-1.49-7.79-.29-2.8-.47-5.54-.52-8.23-.06-2.68-.09-4.78-.09-6.3,0-2.45.11-4.87.35-7.27.23-2.39.79-4.55,1.66-6.48.88-1.92,2.22-3.5,4.03-4.73,1.81-1.22,4.23-1.84,7.26-1.84,1.87,0,3.41.73,4.64,2.19,1.23,1.46,2.22,3.21,2.98,5.25.76,2.04,1.28,4.14,1.58,6.3.12.93.23,1.79.33,2.58.18,1.56,1.55,2.7,3.11,2.62l23.7-1.12c1.72-.08,3-1.6,2.85-3.31-.41-4.54-1.31-9.09-2.68-13.64-1.69-5.6-4.17-10.68-7.44-15.23ZM69.8,45.1l-9.32,12.02c-1.08,1.39-2.89,2-4.6,1.54l-23.46-6.34-.12-.11c-6.93-2.25-11.01-9.25-9.68-16.4l1.11-5.54c.89-4.61,3.86-8.44,8.22-10.43,4.36-1.99,9.09-1.68,13.25.71l18.51,10.93c3.71,2.17,6.31,6.08,6.96,10.31.18,1.17-.16,2.37-.88,3.3ZM64.38,139.24l-18.35,11.19c-4.01,2.45-8.85,2.83-13.24.9h.12c-4.39-1.93-7.41-5.59-8.37-10.31l-1.19-5.64c-1.43-7.13,2.55-14.19,9.44-16.54l21.97-8.85c1.85-.74,3.96-.15,5.15,1.45l10.47,14.14c.67.9.98,2.03.84,3.14-.53,4.35-3.01,8.26-6.83,10.51Z"/>
  <path class="cls-1" d="M481.45,113.55c-.17-3.55-.37-7.4-.59-11.54-.22-4.15-.58-8.43-1.1-12.84-.52-4.4-1.21-8.81-2.07-13.22-.87-4.41-2.05-8.58-3.57-12.52-1.51-3.93-3.39-7.56-5.64-10.89-2.25-3.32-4.97-6.07-8.17-8.23-2.07-1.47-4.3-2.6-6.68-3.38-2.38-.77-4.82-1.16-7.32-1.16-3.89,0-7.29.62-10.18,1.88-2.9,1.26-5.41,2.97-7.52,5.12-2.12,2.16-3.87,4.67-5.25,7.52-1.38,2.85-2.46,5.88-3.25,9.08-.78,3.2-1.34,6.47-1.68,9.79-.35,3.32-.52,6.54-.52,9.66,0,6.49.28,12.89.84,19.2.56,6.31,1.28,12.66,2.14,19.06.69,4.76,1.4,9.47,2.14,14.14.57,3.62.87,7.3.89,11.02.01,1.74,1.54,3.09,3.27,2.92l16.01-1.5c1.54-.14,2.72-1.44,2.72-2.98v-1.04c0-2.67-.11-5.14-.32-7.39-.22-2.25-.5-4.43-.84-6.55-.35-2.11-.74-4.27-1.17-6.48-.24-1.23-.47-2.53-.69-3.91-.28-1.8,1.11-3.41,2.93-3.45,3.55-.07,7.09-.23,10.64-.5,1.68-.13,3.13,1.13,3.22,2.81.34,6.36.74,12.75,1.18,19.16.12,1.68,1.59,2.94,3.26,2.79l15.95-1.41c1.62-.14,2.84-1.56,2.73-3.18-.21-3.18-.43-6.36-.66-9.53-.31-4.15-.54-8.29-.71-12.44ZM459.07,80.68l-13.7,8.73c-3.6,2.29-8.04-.5-8-5.02l.18-17.22c.05-4.53,4.55-7.39,8.1-5.16l13.52,8.49c3.55,2.23,3.5,7.89-.1,10.18Z"/>
</svg>