<?xml version="1.0" encoding="UTF-8" standalone="no" ?>
<!DOCTYPE svg PUBLIC "-//W3C//DTD SVG 1.1//EN" "http://www.w3.org/Graphics/SVG/1.1/DTD/svg11.dtd">
<svg xmlns="http://www.w3.org/2000/svg" xmlns:xlink="http://www.w3.org/1999/xlink" version="1.1" width="1080" height="1080" viewBox="0 0 1080 1080" xml:space="preserve">
<desc>Created with Fabric.js 5.2.4</desc>
<defs>
</defs>
<g transform="matrix(1 0 0 1 540 540)" id="b19bd774-4e01-4bfa-8742-a389836f9def"  >
<rect style="stroke: none; stroke-width: 1; stroke-dasharray: none; stroke-linecap: butt; stroke-dashoffset: 0; stroke-linejoin: miter; stroke-miterlimit: 4; fill: rgb(255,255,255); fill-rule: nonzero; opacity: 1; visibility: hidden;" vector-effect="non-scaling-stroke"  x="-540" y="-540" rx="0" ry="0" width="1080" height="1080" />
</g>
<g transform="matrix(1 0 0 1 540 540)" id="2379cb7d-a918-43cf-806f-bed581024c95"  >
</g>
<g transform="matrix(1 0 0 1 540 540)"  >
<g style="" vector-effect="non-scaling-stroke"   >
		<g transform="matrix(1 0 0 1 -73.85 7.35)"  >
<path style="stroke: none; stroke-width: 1; stroke-dasharray: none; stroke-linecap: butt; stroke-dashoffset: 0; stroke-linejoin: miter; stroke-miterlimit: 4; fill: rgb(0,0,0); fill-rule: nonzero; opacity: 1;" vector-effect="non-scaling-stroke"  transform=" translate(-226.15, -307.37)" d="M 252.49 273.99 C 252.45000000000002 272.76 251.42000000000002 271.81 250.19 271.86 L 238.48 272.41 C 237.28 272.47 236.35 273.47 236.36999999999998 274.67 C 236.49999999999997 280.17 236.67 285.66 236.89999999999998 291.13 C 237.14999999999998 297.32 237.27999999999997 303.56 237.27999999999997 309.84 C 237.27999999999997 312 237.19999999999996 314.08 237.03999999999996 316.08 C 236.87999999999997 318.08 236.43999999999997 319.88 235.70999999999995 321.46 C 234.97999999999996 323.04999999999995 233.86999999999995 324.32 232.37999999999994 325.27 C 230.87999999999994 326.21999999999997 228.76999999999992 326.7 226.04999999999993 326.7 C 223.32999999999993 326.7 221.31999999999994 326.08 219.85999999999993 324.84 C 218.39999999999992 323.60999999999996 217.29999999999993 322.07 216.56999999999994 320.21999999999997 C 215.83999999999995 318.38 215.39999999999995 316.36999999999995 215.23999999999992 314.17999999999995 C 215.07999999999993 311.98999999999995 214.99999999999991 309.90999999999997 214.99999999999991 307.93999999999994 C 214.99999999999991 302.41999999999996 215.32999999999993 296.97999999999996 215.99999999999991 291.60999999999996 C 216.57999999999993 286.97999999999996 217.01999999999992 282.28 217.33999999999992 277.53999999999996 C 217.41999999999993 276.30999999999995 216.45999999999992 275.23999999999995 215.2299999999999 275.18999999999994 L 203.5199999999999 274.69999999999993 C 202.3399999999999 274.6499999999999 201.3299999999999 275.54999999999995 201.2399999999999 276.7299999999999 C 200.87999999999988 281.5999999999999 200.3999999999999 286.44999999999993 199.8199999999999 291.2699999999999 C 199.14999999999992 296.7899999999999 198.8199999999999 302.3499999999999 198.8199999999999 307.92999999999995 C 198.8199999999999 312.37999999999994 199.2699999999999 316.68999999999994 200.1599999999999 320.87999999999994 C 201.0499999999999 325.06999999999994 202.5399999999999 328.79999999999995 204.6399999999999 332.06999999999994 C 206.7299999999999 335.3399999999999 209.5099999999999 337.9599999999999 212.9699999999999 339.92999999999995 C 216.42999999999992 341.9 220.7599999999999 342.87999999999994 225.9699999999999 342.87999999999994 C 231.54999999999993 342.87999999999994 236.11999999999992 341.93999999999994 239.67999999999992 340.06999999999994 C 243.22999999999993 338.19999999999993 246.03999999999994 335.6599999999999 248.10999999999993 332.44999999999993 C 250.16999999999993 329.24999999999994 251.57999999999993 325.49999999999994 252.33999999999992 321.2099999999999 C 253.0999999999999 316.92999999999995 253.4799999999999 312.37999999999994 253.4799999999999 307.5499999999999 C 253.4799999999999 301.5199999999999 253.3499999999999 295.5399999999999 253.0999999999999 289.5999999999999 C 252.8799999999999 284.3999999999999 252.67999999999992 279.19999999999993 252.5099999999999 273.9799999999999 Z" stroke-linecap="round" />
</g>
		<g transform="matrix(1 0 0 1 0.32 11.87)"  >
<path style="stroke: none; stroke-width: 1; stroke-dasharray: none; stroke-linecap: butt; stroke-dashoffset: 0; stroke-linejoin: miter; stroke-miterlimit: 4; fill: rgb(0,0,0); fill-rule: nonzero; opacity: 1;" vector-effect="non-scaling-stroke"  transform=" translate(-300.32, -311.89)" d="M 316.4 330.62 C 314.42999999999995 330.39 312.33 330.03000000000003 310.10999999999996 329.55 C 307.03 328.88 304.15999999999997 327.81 301.48999999999995 326.31 C 298.81999999999994 324.82 296.59 322.79 294.78 320.22 C 292.96999999999997 317.65000000000003 292.07 314.33000000000004 292.07 310.27000000000004 C 292.07 307.29 292.51 304.73 293.4 302.61 C 294.28999999999996 300.48 295.51 298.74 297.07 297.37 C 298.62 296.01 300.45 295.01 302.54 294.37 C 304.64000000000004 293.73 306.86 293.42 309.21000000000004 293.42 C 312.83000000000004 293.42 316.47 293.81 320.09000000000003 294.62 C 321.37 293.72 321.96000000000004 293.3 323.24 292.4 L 324.73 281.01 C 324.89000000000004 279.81 324.04 278.71 322.85 278.53999999999996 C 320.93 278.27 319.03000000000003 278.01 317.16 277.74999999999994 C 314.59000000000003 277.40999999999997 311.97 277.22999999999996 309.3 277.22999999999996 C 304.67 277.22999999999996 300.32 277.96 296.26 279.41999999999996 C 292.2 280.87999999999994 288.65999999999997 283.00999999999993 285.65 285.79999999999995 C 282.64 288.59 280.25 292.04999999999995 278.51 296.17999999999995 C 276.76 300.30999999999995 275.89 305.00999999999993 275.89 310.2699999999999 C 275.89 316.4199999999999 277.24 321.75999999999993 279.94 326.25999999999993 C 282.64 330.7699999999999 286.01 334.5299999999999 290.08 337.5399999999999 C 294.14 340.5499999999999 298.52 342.8099999999999 303.21999999999997 344.2999999999999 C 307.13 345.5399999999999 310.80999999999995 346.2899999999999 314.28 346.5399999999999 C 315.44 346.6299999999999 316.47999999999996 345.8099999999999 316.65 344.6599999999999 L 318.32 333.1099999999999 C 318.5 331.8899999999999 317.64 330.7599999999999 316.40999999999997 330.6199999999999 Z" stroke-linecap="round" />
</g>
		<g transform="matrix(1 0 0 1 43.36 10.41)"  >
<path style="stroke: none; stroke-width: 1; stroke-dasharray: none; stroke-linecap: butt; stroke-dashoffset: 0; stroke-linejoin: miter; stroke-miterlimit: 4; fill: rgb(0,0,0); fill-rule: nonzero; opacity: 1;" vector-effect="non-scaling-stroke"  transform=" translate(-343.36, -310.42)" d="M 377.52 279.09 C 375.9 277.41999999999996 374.01 276.08 371.85999999999996 275.09 C 369.69999999999993 274.10999999999996 367.34999999999997 273.61999999999995 364.80999999999995 273.61999999999995 C 361.24999999999994 273.61999999999995 357.8399999999999 274.29999999999995 354.56999999999994 275.66999999999996 C 351.29999999999995 277.03 348.29999999999995 278.75999999999993 345.56999999999994 280.85999999999996 C 345.5199999999999 279.67999999999995 344.54999999999995 278.75999999999993 343.36999999999995 278.75999999999993 L 331.5199999999999 278.75999999999993 C 330.2899999999999 278.75999999999993 329.2999999999999 279.7699999999999 329.31999999999994 280.99999999999994 C 329.4699999999999 289.62999999999994 329.54999999999995 298.23999999999995 329.55999999999995 306.81999999999994 C 329.55999999999995 308.30999999999995 328.10999999999996 309.3999999999999 326.69999999999993 308.93999999999994 C 325.00999999999993 308.37999999999994 323.37999999999994 307.65999999999997 321.79999999999995 306.75999999999993 C 319.92999999999995 305.68999999999994 318.21999999999997 304.38999999999993 316.66999999999996 302.8399999999999 C 315.84999999999997 302.0199999999999 314.54999999999995 301.9799999999999 313.67999999999995 302.7399999999999 L 304.78999999999996 310.51999999999987 C 303.83 311.35999999999984 303.79999999999995 312.8199999999999 304.68999999999994 313.7399999999999 C 307.73999999999995 316.8899999999999 311.16999999999996 319.51999999999987 314.99999999999994 321.6199999999999 C 319.50999999999993 324.0999999999999 324.23999999999995 325.6199999999999 329.18999999999994 326.1899999999999 C 330.0799999999999 326.2499999999999 331.0799999999999 326.33999999999986 332.18999999999994 326.4799999999999 C 333.29999999999995 326.5999999999999 334.37999999999994 326.7099999999999 335.41999999999996 326.8099999999999 C 336.46999999999997 326.89999999999986 337.39 327.0099999999999 338.17999999999995 327.1399999999999 C 338.96999999999997 327.2599999999999 339.49999999999994 327.4299999999999 339.74999999999994 327.6099999999999 C 340.05999999999995 327.7999999999999 340.12999999999994 328.0899999999999 339.93999999999994 328.4699999999999 C 339.74999999999994 328.8499999999999 339.24999999999994 329.2099999999999 338.4599999999999 329.5599999999999 C 337.6699999999999 329.9099999999999 336.4899999999999 330.20999999999987 334.92999999999995 330.4699999999999 C 333.81999999999994 330.6499999999999 332.46999999999997 330.7699999999999 330.87999999999994 330.81999999999994 C 329.74999999999994 330.85999999999996 328.81999999999994 331.72999999999996 328.73999999999995 332.85999999999996 C 328.59999999999997 334.71999999999997 328.46 336.56999999999994 328.31999999999994 338.41999999999996 C 328.18999999999994 340.19999999999993 328.03999999999996 341.98999999999995 327.86999999999995 343.78 C 327.75999999999993 345 328.6499999999999 346.08 329.85999999999996 346.17999999999995 L 341.65 347.21999999999997 C 342.85999999999996 347.33 343.92999999999995 346.42999999999995 344.03 345.21999999999997 C 344.22999999999996 342.97999999999996 344.42999999999995 340.76 344.65 338.55999999999995 C 344.81 336.96999999999997 344.95 335.36999999999995 345.08 333.74999999999994 C 345.21999999999997 332.00999999999993 347.2 331.10999999999996 348.59999999999997 332.15999999999997 C 351.34999999999997 334.21999999999997 354.10999999999996 336.24999999999994 356.89 338.22999999999996 C 360.16999999999996 340.56999999999994 363.56 342.77 367.07 344.80999999999995 C 368.12 345.41999999999996 369.48 345.04999999999995 370.08 343.99999999999994 L 375.97999999999996 333.78999999999996 C 376.58 332.74999999999994 376.22999999999996 331.41999999999996 375.18999999999994 330.79999999999995 C 372.99999999999994 329.48999999999995 370.85999999999996 328.12999999999994 368.7799999999999 326.71 C 367.0799999999999 325.56 365.3699999999999 324.37 363.6699999999999 323.15 C 362.3499999999999 322.2 362.4699999999999 320.22999999999996 363.8799999999999 319.42999999999995 C 365.58999999999986 318.44999999999993 367.26999999999987 317.35999999999996 368.9199999999999 316.15 C 371.5499999999999 314.21 373.88999999999993 312 375.9199999999999 309.53 C 377.9499999999999 307.05999999999995 379.5899999999999 304.35999999999996 380.8199999999999 301.44 C 382.0599999999999 298.52 382.6799999999999 295.41 382.6799999999999 292.11 C 382.6799999999999 289.63 382.2199999999999 287.27000000000004 381.2999999999999 285.01 C 380.3799999999999 282.76 379.1099999999999 280.78999999999996 377.4899999999999 279.11 Z M 365.57 295.94 C 364.94 297.12 364.24 298.21 363.46999999999997 299.23 C 361.30999999999995 301.90000000000003 358.65 304.04 355.46999999999997 305.66 C 353.19 306.82000000000005 350.89 307.76000000000005 348.54999999999995 308.48 C 347.15 308.91 345.72999999999996 307.88 345.68999999999994 306.42 L 345.66999999999996 305.76 C 345.65999999999997 305.34999999999997 345.75999999999993 304.95 345.96 304.59999999999997 C 346.79999999999995 303.17999999999995 347.82 301.66999999999996 349.03 300.09 C 350.39 298.32 351.91999999999996 296.66999999999996 353.59999999999997 295.14 C 355.28 293.61 357.07 292.34999999999997 358.97999999999996 291.33 C 360.87999999999994 290.32 362.81999999999994 289.81 364.78999999999996 289.81 C 365.42999999999995 289.81 365.86999999999995 290.1 366.11999999999995 290.66 C 366.36999999999995 291.23 366.49999999999994 291.78000000000003 366.49999999999994 292.28000000000003 C 366.49999999999994 293.55 366.17999999999995 294.77000000000004 365.54999999999995 295.95000000000005 Z" stroke-linecap="round" />
</g>
		<g transform="matrix(1 0 0 1 152.86 3.56)"  >
<path style="stroke: none; stroke-width: 1; stroke-dasharray: none; stroke-linecap: butt; stroke-dashoffset: 0; stroke-linejoin: miter; stroke-miterlimit: 4; fill: rgb(0,0,0); fill-rule: nonzero; opacity: 1;" vector-effect="non-scaling-stroke"  transform=" translate(-452.86, -303.58)" d="M 472.43 265.67 C 470.35 265.89000000000004 468.31 266.1 466.3 266.28000000000003 C 463.57 266.54 460.81 266.76000000000005 458.02000000000004 266.95000000000005 C 453.26000000000005 267.34000000000003 448.54 267.52000000000004 443.88000000000005 267.52000000000004 C 439.94000000000005 267.52000000000004 435.97 267.59000000000003 431.96000000000004 267.73 C 430.74 267.77000000000004 429.78000000000003 268.81 429.83000000000004 270.03000000000003 L 430.32000000000005 281.82000000000005 C 430.37000000000006 283.02000000000004 431.38000000000005 283.96000000000004 432.59000000000003 283.9200000000001 C 435.6 283.8300000000001 438.58000000000004 283.75000000000006 441.55 283.70000000000005 C 443.63 283.66 445.72 283.62000000000006 447.82 283.56000000000006 C 449.71 283.51000000000005 450.79 285.68000000000006 449.59 287.15000000000003 C 448.25 288.79 446.86999999999995 290.49 445.45 292.27000000000004 C 442.90999999999997 295.45000000000005 440.58 298.76000000000005 438.45 302.22 C 436.32 305.68 434.56 309.23 433.17 312.88000000000005 C 431.78000000000003 316.5400000000001 431.08000000000004 320.2300000000001 431.08000000000004 323.9800000000001 C 431.08000000000004 327.0300000000001 431.76000000000005 329.6400000000001 433.13000000000005 331.8400000000001 C 434.49000000000007 334.0300000000001 436.24000000000007 335.8400000000001 438.37000000000006 337.2600000000001 C 440.49000000000007 338.6900000000001 442.89000000000004 339.7500000000001 445.56000000000006 340.4500000000001 C 448.2300000000001 341.1500000000001 450.89000000000004 341.5000000000001 453.56000000000006 341.5000000000001 C 457.24000000000007 341.5000000000001 460.88000000000005 341.10000000000014 464.46000000000004 340.3100000000001 C 467.34000000000003 339.6800000000001 470.19000000000005 338.91000000000014 473.01000000000005 338.0000000000001 C 474.16 337.6300000000001 474.78000000000003 336.3800000000001 474.4200000000001 335.23000000000013 L 470.81000000000006 323.98000000000013 C 470.44000000000005 322.8200000000001 469.21000000000004 322.20000000000016 468.05000000000007 322.5600000000001 C 466.06000000000006 323.1800000000001 464.0400000000001 323.7500000000001 462.00000000000006 324.2700000000001 C 459.24000000000007 324.9700000000001 456.43000000000006 325.3200000000001 453.57000000000005 325.3200000000001 C 453.32000000000005 325.3200000000001 452.84000000000003 325.29000000000013 452.14000000000004 325.23000000000013 C 451.44000000000005 325.17000000000013 450.74000000000007 325.0700000000001 450.04 324.9400000000001 C 449.34000000000003 324.8200000000001 448.71000000000004 324.6500000000001 448.14000000000004 324.4600000000001 C 447.57000000000005 324.2700000000001 447.28000000000003 324.0800000000001 447.28000000000003 323.8900000000001 C 447.28000000000003 321.9800000000001 447.79 319.8300000000001 448.81 317.4100000000001 C 449.83 315.00000000000006 451.16 312.49000000000007 452.81 309.8900000000001 C 454.46 307.2900000000001 456.32 304.6600000000001 458.38 301.9900000000001 C 460.44 299.3200000000001 462.49 296.7400000000001 464.52 294.23000000000013 C 466.54999999999995 291.72000000000014 468.47999999999996 289.39000000000016 470.33 287.23000000000013 C 472.14 285.10000000000014 473.65 283.2600000000001 474.84999999999997 281.6800000000001 C 474.89 281.6300000000001 474.91999999999996 281.5800000000001 474.95 281.53000000000014 L 475.53999999999996 280.6200000000001 C 475.79999999999995 280.2100000000001 475.92999999999995 279.72000000000014 475.87999999999994 279.2400000000001 L 474.8999999999999 267.67000000000013 C 474.7999999999999 266.4400000000001 473.68999999999994 265.54000000000013 472.4699999999999 265.67000000000013 Z" stroke-linecap="round" />
</g>
		<g transform="matrix(1 0 0 1 197.89 -0.16)"  >
<path style="stroke: none; stroke-width: 1; stroke-dasharray: none; stroke-linecap: butt; stroke-dashoffset: 0; stroke-linejoin: miter; stroke-miterlimit: 4; fill: rgb(0,0,0); fill-rule: nonzero; opacity: 1;" vector-effect="non-scaling-stroke"  transform=" translate(-497.89, -299.86)" d="M 517.47 264.11 C 516.02 264.03000000000003 514.58 263.90000000000003 513.15 263.73 C 511.02 263.47 508.84999999999997 263.34000000000003 506.63 263.34000000000003 C 503.84 263.34000000000003 501.07 263.34000000000003 498.35 263.29 C 495.62 263.26000000000005 492.86 263.24 490.07000000000005 263.24 L 484.12000000000006 263.24 C 482.87000000000006 263.24 481.61000000000007 263.25 480.33000000000004 263.28000000000003 C 479.13000000000005 263.3 478.17 264.29 478.17 265.49 L 478.17 276.84000000000003 C 478.17 278.64000000000004 478 280.44000000000005 477.63 282.21000000000004 C 477.29 283.87000000000006 477.02 285.52000000000004 476.83 287.15000000000003 C 476.51 289.57000000000005 476.34 291.96000000000004 476.31 294.34000000000003 C 476.28000000000003 296.72 476.26 299.12 476.26 301.53000000000003 L 476.36 328.19000000000005 L 476.55 328.19000000000005 L 476.17 336.37000000000006 C 476.49 336.37000000000006 476.82 336.39000000000004 477.17 336.4200000000001 C 477.52000000000004 336.4600000000001 477.85 336.4700000000001 478.17 336.4700000000001 C 481.41 336.4700000000001 484.64000000000004 336.3500000000001 487.88 336.1400000000001 C 491.11 335.9200000000001 494.35 335.8100000000001 497.59 335.8100000000001 C 501.02 335.8100000000001 504.38 335.8400000000001 507.69 335.9000000000001 C 510.28 335.9500000000001 512.9 335.9800000000001 515.57 335.99000000000007 C 516.7900000000001 335.99000000000007 517.7800000000001 335.00000000000006 517.7800000000001 333.7900000000001 L 517.7800000000001 321.9800000000001 C 517.7800000000001 320.7800000000001 516.8100000000001 319.80000000000007 515.6100000000001 319.7800000000001 C 512.0900000000001 319.7200000000001 508.59000000000015 319.6600000000001 505.1200000000001 319.5800000000001 C 501.6800000000001 319.5000000000001 498.22000000000014 319.5100000000001 494.73000000000013 319.6300000000001 C 493.4900000000001 319.67000000000013 492.45000000000016 318.6900000000001 492.45000000000016 317.4400000000001 L 492.45000000000016 304.8100000000001 C 492.45000000000016 303.66000000000014 493.34000000000015 302.7100000000001 494.4900000000002 302.6200000000001 C 497.5400000000002 302.4000000000001 500.58000000000015 302.1400000000001 503.5900000000002 301.8600000000001 C 506.5500000000002 301.58000000000015 509.5200000000002 301.3700000000001 512.5200000000002 301.23000000000013 C 513.7400000000002 301.17000000000013 514.6800000000002 300.15000000000015 514.6300000000002 298.9400000000001 L 514.0800000000003 287.1500000000001 C 514.0200000000003 285.9400000000001 512.9900000000002 284.99000000000007 511.78000000000026 285.05000000000007 C 509.03000000000026 285.18000000000006 506.31000000000023 285.37000000000006 503.60000000000025 285.62000000000006 C 501.06000000000023 285.86000000000007 498.5100000000003 286.07000000000005 495.9400000000002 286.27000000000004 C 494.5300000000002 286.38000000000005 493.37000000000023 285.14000000000004 493.5800000000002 283.75000000000006 C 493.62000000000023 283.50000000000006 493.6600000000002 283.25000000000006 493.7000000000002 283.00000000000006 C 493.7800000000002 282.49000000000007 493.86000000000024 281.99000000000007 493.93000000000023 281.49000000000007 C 494.09000000000026 280.37000000000006 495.0800000000002 279.58000000000004 496.2100000000002 279.62000000000006 C 497.5800000000002 279.6600000000001 498.9700000000002 279.6600000000001 500.37000000000023 279.62000000000006 C 502.47000000000025 279.56000000000006 504.53000000000026 279.52000000000004 506.56000000000023 279.52000000000004 C 508.78000000000026 279.52000000000004 510.9500000000002 279.65000000000003 513.0800000000003 279.91 C 514.4500000000003 280.07000000000005 515.8300000000003 280.19 517.2400000000002 280.28000000000003 C 518.5200000000002 280.36 519.6000000000003 279.36 519.6000000000003 278.08000000000004 L 519.6000000000003 266.30000000000007 C 519.6000000000003 265.12000000000006 518.6700000000003 264.1700000000001 517.5000000000002 264.1000000000001 Z" stroke-linecap="round" />
</g>
		<g transform="matrix(1 0 0 1 -36 -7.72)"  >
<path style="stroke: none; stroke-width: 1; stroke-dasharray: none; stroke-linecap: butt; stroke-dashoffset: 0; stroke-linejoin: miter; stroke-miterlimit: 4; fill: rgb(0,0,0); fill-rule: nonzero; opacity: 1;" vector-effect="non-scaling-stroke"  transform=" translate(-264, -292.3)" d="M 275.77 328.94 C 274.97999999999996 327.38 274.33 325.84 273.82 324.32 C 273.31 322.79 272.90999999999997 321.17 272.63 319.46 C 272.35 317.75 272.2 315.78 272.2 313.56 C 272.52 306.08 273.01 298.63 273.68 291.24 C 274.29 284.45 274.78000000000003 277.63 275.15000000000003 270.76 C 275.21000000000004 269.69 276.02000000000004 268.82 277.09000000000003 268.7 L 289.6 267.26 C 290.82000000000005 267.12 291.69 266.01 291.53000000000003 264.78999999999996 L 290.01000000000005 253.06999999999996 C 289.86000000000007 251.87999999999997 288.77000000000004 251.02999999999997 287.57000000000005 251.16999999999996 L 278.26000000000005 252.24999999999997 C 276.96000000000004 252.39999999999998 275.83000000000004 251.39999999999998 275.81000000000006 250.08999999999997 C 275.7900000000001 248.68999999999997 275.74000000000007 247.27999999999997 275.6700000000001 245.85999999999999 C 275.61000000000007 244.60999999999999 274.51000000000005 243.67 273.2700000000001 243.77999999999997 L 261.5100000000001 244.81999999999996 C 260.3100000000001 244.92999999999998 259.4400000000001 245.96999999999997 259.5100000000001 247.16999999999996 C 259.5500000000001 247.91999999999996 259.5800000000001 248.67999999999995 259.5900000000001 249.43999999999997 C 259.6000000000001 250.05999999999997 259.62000000000006 250.67999999999998 259.62000000000006 251.29999999999998 C 259.64000000000004 252.64999999999998 258.45000000000005 253.70999999999998 257.11000000000007 253.51999999999998 C 254.54000000000008 253.14999999999998 252.01000000000008 252.73 249.50000000000006 252.24999999999997 C 246.88000000000005 251.74999999999997 244.27000000000007 251.22999999999996 241.67000000000004 250.68999999999997 C 240.49000000000004 250.44999999999996 239.34000000000003 251.18999999999997 239.08000000000004 252.35999999999996 L 236.51000000000005 263.86999999999995 C 236.24000000000004 265.06999999999994 237.00000000000006 266.25999999999993 238.21000000000004 266.50999999999993 C 241.29000000000005 267.1499999999999 244.37000000000003 267.73999999999995 247.45000000000005 268.2799999999999 C 250.58000000000004 268.8299999999999 253.76000000000005 269.2999999999999 256.98 269.69999999999993 C 258.15000000000003 269.8399999999999 259 270.86999999999995 258.91 272.04999999999995 C 258.65000000000003 275.59999999999997 258.38000000000005 279.13999999999993 258.12 282.66999999999996 C 257.8 286.89 257.49 291.11999999999995 257.17 295.37999999999994 C 256.91 298.79999999999995 256.66 302.2199999999999 256.41 305.61999999999995 C 256.16 309.02 256.03000000000003 312.42999999999995 256.03000000000003 315.85999999999996 C 256.03000000000003 320.68999999999994 256.82000000000005 325.15999999999997 258.41 329.28999999999996 C 259.75 332.76 261.31 336.21 263.1 339.65 C 263.66 340.71999999999997 264.99 341.13 266.06 340.57 L 276.53000000000003 335.15999999999997 C 277.62 334.59999999999997 278.03000000000003 333.24999999999994 277.46000000000004 332.16999999999996 C 276.86 331.02 276.3 329.94999999999993 275.79 328.94999999999993 Z" stroke-linecap="round" />
</g>
		<g transform="matrix(1 0 0 1 -160.93 0)"  >
<path style="stroke: none; stroke-width: 1; stroke-dasharray: none; stroke-linecap: butt; stroke-dashoffset: 0; stroke-linejoin: miter; stroke-miterlimit: 4; fill: rgb(0,0,0); fill-rule: nonzero; opacity: 1;" vector-effect="non-scaling-stroke"  transform=" translate(-139.07, -300.02)" d="M 190.31 272.85 C 187.91 269.51000000000005 184.95 266.79 181.44 264.69 C 177.93 262.59 173.85999999999999 261.54 169.23 261.54 C 163.14 261.54 158.04999999999998 262.57 153.92999999999998 264.62 C 149.81999999999996 266.68 146.54 269.46 144.09999999999997 272.98 C 141.65999999999997 276.49 139.91999999999996 280.65000000000003 138.88999999999996 285.45000000000005 C 138.51999999999995 287.16 138.24999999999997 288.91 138.00999999999996 290.70000000000005 L 132.14999999999995 288.23 C 130.23999999999995 287.42 129.57999999999996 285.04 130.80999999999995 283.37 L 140.57999999999996 270.1 C 141.00999999999996 269.51000000000005 141.24999999999994 268.79 141.20999999999995 268.07000000000005 C 140.77999999999994 260.38000000000005 136.49999999999994 253.30000000000004 129.84999999999997 249.32000000000005 L 116.25999999999996 241.30000000000004 C 109.71999999999996 237.46000000000004 101.76999999999997 237.01000000000005 94.84999999999997 240.10000000000005 C 87.93999999999997 243.19000000000005 82.98999999999997 249.49000000000007 81.60999999999997 256.94000000000005 L 80.78999999999998 261.09000000000003 C 80.45999999999998 262.61 80.38999999999997 264.14000000000004 80.39999999999998 265.66 C 80.46999999999997 275.47 86.78999999999998 284.48 96.45999999999998 287.62 L 132.90999999999997 299.45 L 132.90999999999997 300.17 L 96.62999999999997 312.53000000000003 C 87.00999999999996 315.81 80.81999999999996 324.91 80.88999999999997 334.72 C 80.89999999999998 336.24 81.07999999999997 337.76000000000005 81.34999999999997 339.28000000000003 L 82.22999999999996 343.42 C 83.71999999999996 350.85 88.83999999999996 356.99 95.70999999999997 360.07 C 102.66999999999996 363.06 110.60999999999997 362.5 117.09999999999997 358.56 L 130.56999999999996 350.34 C 137.15999999999997 346.34 141.33999999999997 339.10999999999996 141.65999999999997 331.4 C 141.68999999999997 330.69 141.44999999999996 329.98999999999995 141.02999999999997 329.41999999999996 L 131.62999999999997 316.59999999999997 C 130.52999999999997 315.09999999999997 130.92999999999998 312.98999999999995 132.49999999999997 311.98999999999995 L 137.71999999999997 308.66999999999996 C 137.91999999999996 310.80999999999995 138.18999999999997 312.94999999999993 138.55999999999997 315.08 C 139.36999999999998 319.84 140.86999999999998 324.12 143.05999999999997 327.93 C 145.24999999999997 331.74 148.19999999999996 334.85 151.92999999999998 337.25 C 155.65999999999997 339.65 160.39 340.85 166.12999999999997 340.85 C 170.23999999999998 340.85 173.90999999999997 340.25 177.11999999999998 339.05 C 180.32999999999998 337.85 183.09999999999997 336.12 185.40999999999997 333.84000000000003 C 187.71999999999997 331.57000000000005 189.62999999999997 328.87 191.12999999999997 325.74 C 192.32999999999996 323.23 193.32999999999996 320.49 194.11999999999998 317.52 C 194.43999999999997 316.29999999999995 193.7 315.04999999999995 192.46999999999997 314.78 L 175.56999999999996 311.01 C 174.37999999999997 310.75 173.22999999999996 311.5 172.94999999999996 312.69 C 172.62999999999997 314.05 172.14999999999995 315.29 171.52999999999997 316.43 C 170.58999999999997 318.15000000000003 168.78999999999996 319 166.12999999999997 319 C 165.61999999999998 319 165.05999999999997 318.98 164.45999999999998 318.94 C 163.85999999999999 318.9 163.34999999999997 318.71 162.92 318.36 C 161.98 317.67 161.25 316.45 160.73 314.7 C 160.22 312.95 159.85 311.03999999999996 159.64 308.97999999999996 C 159.42999999999998 306.91999999999996 159.29999999999998 304.90999999999997 159.25 302.93999999999994 C 159.21 300.9699999999999 159.19 299.42999999999995 159.19 298.30999999999995 C 159.19 296.50999999999993 159.27 294.72999999999996 159.45 292.97999999999996 C 159.61999999999998 291.22999999999996 160.03 289.64 160.67 288.21999999999997 C 161.30999999999997 286.80999999999995 162.29999999999998 285.65 163.63 284.74999999999994 C 164.96 283.84999999999997 166.73 283.3999999999999 168.96 283.3999999999999 C 170.33 283.3999999999999 171.47 283.93999999999994 172.37 285.00999999999993 C 173.27 286.0799999999999 174 287.36999999999995 174.56 288.86999999999995 C 175.12 290.36999999999995 175.5 291.90999999999997 175.72 293.49999999999994 C 175.81 294.17999999999995 175.89 294.81999999999994 175.96 295.3999999999999 C 176.1 296.5499999999999 177.09 297.37999999999994 178.25 297.3299999999999 L 195.65 296.50999999999993 C 196.92000000000002 296.44999999999993 197.85 295.3399999999999 197.74 294.0799999999999 C 197.44 290.73999999999995 196.78 287.4099999999999 195.77 284.06999999999994 C 194.53 279.9599999999999 192.71 276.22999999999996 190.31 272.88999999999993 Z M 127.9 270.34 L 121.06 279.16999999999996 C 120.27 280.18999999999994 118.94 280.64 117.69 280.29999999999995 L 100.47 275.65 L 100.38 275.57 C 95.28999999999999 273.92 92.3 268.78 93.27 263.53 L 94.08999999999999 259.46 C 94.74 256.07 96.91999999999999 253.26999999999998 100.11999999999999 251.79999999999998 C 103.32 250.33999999999997 106.78999999999999 250.57 109.85 252.32 L 123.44 260.34 C 126.17 261.92999999999995 128.07 264.81 128.55 267.90999999999997 C 128.68 268.77 128.43 269.65 127.9 270.34 Z M 123.92 339.47 L 110.45 347.69000000000005 C 107.5 349.49000000000007 103.95 349.77000000000004 100.73 348.3500000000001 L 100.81 348.3500000000001 C 97.59 346.93000000000006 95.37 344.24000000000007 94.67 340.7800000000001 L 93.79 336.6400000000001 C 92.74000000000001 331.4000000000001 95.66000000000001 326.2200000000001 100.72 324.4900000000001 L 116.85 317.9900000000001 C 118.21 317.4400000000001 119.75999999999999 317.8800000000001 120.63 319.0600000000001 L 128.32 329.4400000000001 C 128.81 330.10000000000014 129.04 330.9300000000001 128.94 331.7500000000001 C 128.55 334.9400000000001 126.73 337.8200000000001 123.92 339.47000000000014 Z" stroke-linecap="round" />
</g>
		<g transform="matrix(1 0 0 1 107.34 6.57)"  >
<path style="stroke: none; stroke-width: 1; stroke-dasharray: none; stroke-linecap: butt; stroke-dashoffset: 0; stroke-linejoin: miter; stroke-miterlimit: 4; fill: rgb(0,0,0); fill-rule: nonzero; opacity: 1;" vector-effect="non-scaling-stroke"  transform=" translate(-407.34, -306.58)" d="M 430.15 320.61 C 430.02 318.01 429.88 315.18 429.71999999999997 312.13 C 429.55999999999995 309.08 429.28999999999996 305.94 428.90999999999997 302.7 C 428.53 299.46999999999997 428.02 296.22999999999996 427.39 292.99 C 426.75 289.75 425.88 286.69 424.77 283.8 C 423.65999999999997 280.92 422.28 278.25 420.63 275.8 C 418.98 273.36 416.98 271.34000000000003 414.63 269.76 C 413.11 268.68 411.46999999999997 267.84999999999997 409.73 267.28 C 407.98 266.71 406.19 266.42999999999995 404.35 266.42999999999995 C 401.49 266.42999999999995 399 266.88999999999993 396.88 267.80999999999995 C 394.75 268.72999999999996 392.90999999999997 269.98999999999995 391.36 271.56999999999994 C 389.8 273.1599999999999 388.52000000000004 274.99999999999994 387.51 277.0899999999999 C 386.49 279.1799999999999 385.7 281.4099999999999 385.13 283.74999999999994 C 384.56 286.09999999999997 384.15 288.49999999999994 383.89 290.93999999999994 C 383.63 293.37999999999994 383.51 295.73999999999995 383.51 298.0299999999999 C 383.51 302.7999999999999 383.71999999999997 307.4899999999999 384.13 312.1199999999999 C 384.54 316.7499999999999 385.07 321.4199999999999 385.7 326.1099999999999 C 386.21 329.5999999999999 386.72999999999996 333.0599999999999 387.27 336.4899999999999 C 387.69 339.1499999999999 387.90999999999997 341.8499999999999 387.93 344.57999999999987 C 387.93 345.85999999999984 389.06 346.84999999999985 390.33 346.72999999999985 L 402.08 345.6299999999998 C 403.21 345.5199999999998 404.08 344.5699999999998 404.08 343.4399999999998 L 404.08 342.67999999999984 C 404.08 340.71999999999986 404 338.90999999999985 403.84 337.2599999999998 C 403.67999999999995 335.60999999999984 403.46999999999997 334.0099999999998 403.21999999999997 332.4499999999998 C 402.96 330.8999999999998 402.67999999999995 329.30999999999983 402.35999999999996 327.6899999999998 C 402.17999999999995 326.78999999999985 402.00999999999993 325.8299999999998 401.85999999999996 324.8199999999998 C 401.65999999999997 323.49999999999983 402.67999999999995 322.30999999999983 404.00999999999993 322.28999999999985 C 406.61999999999995 322.23999999999984 409.2199999999999 322.11999999999983 411.81999999999994 321.92999999999984 C 413.04999999999995 321.83999999999986 414.11999999999995 322.7599999999998 414.18999999999994 323.99999999999983 C 414.43999999999994 328.66999999999985 414.72999999999996 333.35999999999984 415.04999999999995 338.0699999999998 C 415.12999999999994 339.29999999999984 416.21999999999997 340.22999999999985 417.44999999999993 340.11999999999983 L 429.1599999999999 339.0799999999998 C 430.3499999999999 338.9699999999998 431.2399999999999 337.9399999999998 431.1699999999999 336.73999999999984 C 431.0199999999999 334.40999999999985 430.8599999999999 332.0699999999998 430.6899999999999 329.73999999999984 C 430.45999999999987 326.6899999999998 430.2899999999999 323.64999999999986 430.1699999999999 320.59999999999985 Z M 413.72 296.47 L 403.66 302.88000000000005 C 401.02000000000004 304.56000000000006 397.75 302.52000000000004 397.79 299.19000000000005 L 397.92 286.55000000000007 C 397.95 283.2300000000001 401.26 281.12000000000006 403.87 282.76000000000005 L 413.8 288.99000000000007 C 416.41 290.63000000000005 416.37 294.7800000000001 413.72 296.4700000000001 Z" stroke-linecap="round" />
</g>
</g>
</g>
</svg>